<svg width="398" height="434" xmlns="http://www.w3.org/2000/svg" xmlns:xlink="http://www.w3.org/1999/xlink" overflow="hidden"><defs><clipPath id="clip0"><path d="M437 200 835 200 835 634 437 634Z" fill-rule="evenodd" clip-rule="evenodd"/></clipPath></defs><g clip-path="url(#clip0)" transform="translate(-437 -200)"><path d="M615.057 580.731C590.137 552.836 577.201 497.071 596.303 457.988L453.602 288.363C429.868 259.978 464.011 177.675 534.205 220.553L674.331 387.117C721.335 374.727 772.402 402.55 796.683 430.548 820.963 458.546 854.389 531.849 782.553 594.46 710.717 657.072 639.977 608.627 615.057 580.731Z" stroke="#000000" stroke-width="16" stroke-miterlimit="8" fill="none" fill-rule="evenodd"/><path d="M638.859 556.148C617.269 532.254 605.253 482.018 633.099 452.413 623.986 441.582 614.874 430.75 605.761 419.919 620.821 406.801 622.211 407.121 634.675 394.464 646.297 408.727 628.97 388.579 661.191 427.326 701.275 404.984 751.782 426.357 767.892 449.453 784.003 472.549 808.888 521.42 757.854 565.901 706.819 610.383 660.45 580.041 638.859 556.148Z" fill="#0070C0" fill-rule="evenodd"/></g></svg>