<svg width="397" height="434" xmlns="http://www.w3.org/2000/svg" xmlns:xlink="http://www.w3.org/1999/xlink" overflow="hidden"><defs><clipPath id="clip0"><path d="M-3 200 394 200 394 634-3 634Z" fill-rule="evenodd" clip-rule="evenodd"/></clipPath></defs><g clip-path="url(#clip0)" transform="translate(3 -200)"><path d="M174.332 580.731C149.412 552.836 136.476 497.071 155.577 457.988L12.8764 288.363C-10.8578 259.978 23.2857 177.675 93.4801 220.553L233.606 387.117C280.609 374.727 331.677 402.55 355.957 430.548 380.237 458.546 413.663 531.849 341.827 594.46 269.991 657.072 199.252 608.627 174.332 580.731Z" stroke="#000000" stroke-width="16" stroke-miterlimit="8" fill="none" fill-rule="evenodd"/><path d="M198.725 556.85C177.36 533.225 165.669 483.375 193.548 453.809L97.5687 341.065C112.631 327.951 114.675 327.704 127.15 315.061 159.016 353.388 189.782 390.405 221.648 428.732 261.671 406.317 311.834 427.281 327.748 450.143 343.661 473.005 368.172 521.43 317.129 565.901 266.086 610.373 220.09 580.475 198.725 556.85Z" fill="#C00000" fill-rule="evenodd"/></g></svg>